<?xml version="1.0" encoding="utf-8"?>

<svg version="1.1" id="Layer_1" xmlns="http://www.w3.org/2000/svg" xmlns:xlink="http://www.w3.org/1999/xlink" x="0px" y="0px" viewBox="0 0 6282.9 1022.9" height="100%" style="enable-background:new 0 0 6282.9 1022.9;" xml:space="preserve">

<g transform="rotate(0 116.82069999999999 0)">
&#x9;<g transform="matrix(1 0 0 1 0 0)">
&#x9;&#x9;<g>
&#x9;&#x9;&#x9;<path class="st0" d="M1060.8,253.6l-4.8-11.1l-3.5,11.7c0,1.4-32.5,118.9-82.9,206.6C977.9,212.9,843.1,6.2,841.7,3.5L839,0&#xA;&#x9;&#x9;&#x9;&#x9;l-3.5,2.8c-1.4,1.4-3.5,2.1-4.8,3.5c-91.2,65-168.6,131.3-230.8,197c-4.8,5.5-10.4,11.1-15.2,16.6c-1.4,2.1-1.4,4.8,0.7,6.2&#xA;&#x9;&#x9;&#x9;&#x9;c2.1,1.4,4.1,1.4,6.2,0c4.8-5.5,9.7-11.1,15.2-15.9c60.1-63.6,134.1-127.2,221.2-189.4c-4.8,30.4-20,125.1-42.2,244.7&#xA;&#x9;&#x9;&#x9;&#x9;c-15.2-47.7-59.4-107.1-61.5-109.9c-1.4-2.1-4.1-2.1-6.2-0.7c-2.1,1.4-2.1,4.1-0.7,6.2c0.7,0.7,57.4,76.7,65,124.4v1.4&#xA;&#x9;&#x9;&#x9;&#x9;c-10.4,56.7-21.4,114-32.5,170.7C725.6,354.5,642.7,255.7,642,255c-1.4-2.1-4.1-2.1-6.2-0.7c-2.1,1.4-2.1,4.1-0.7,6.2&#xA;&#x9;&#x9;&#x9;&#x9;c0.7,1.4,93.3,112,109.9,219.1c-15.2,76-31.8,153.4-48.4,224.6c6.9-88.5-4.1-174.2-33.2-255.7C561.1,159,265.3,18,262.6,16.6&#xA;&#x9;&#x9;&#x9;&#x9;l-4.1-2.1l-1.4,4.1c-71.9,172.8-109.2,326.9-112,460.3c-65.7-85-98.1-208.7-98.1-210.1l-3.5-12.4l-4.8,12.4&#xA;&#x9;&#x9;&#x9;&#x9;c-112,282.7,27.6,603.4,311,715.3c65.7,26.3,134.8,38.7,203.2,38.7c74.6,0,149.3-15.2,219.8-45.6&#xA;&#x9;&#x9;&#x9;&#x9;c135.5-58.7,239.8-166.6,294.4-303.4C1121,537.7,1118.9,388.4,1060.8,253.6L1060.8,253.6z M969.6,478.3&#xA;&#x9;&#x9;&#x9;&#x9;c38-61.5,66.3-141.7,80.9-187.3c6.2,75.3,9.7,344.9-223.9,540.5c65-78.1,108.5-164.5,129.2-258.5c6.9-31.8,11.1-62.9,13.1-94&#xA;&#x9;&#x9;&#x9;&#x9;C969.6,479,969.6,478.3,969.6,478.3L969.6,478.3z M947.5,571.6c-38,171.4-151.4,316.5-335.9,432c22.8-48.4,41.5-96.1,55.3-143.1&#xA;&#x9;&#x9;&#x9;&#x9;c0,0,0.7,0,0.7-0.7c0.7-0.7,56-60.1,132-78.1c2.1-0.7,3.5-2.8,2.8-5.5c-0.7-2.1-2.8-3.5-4.8-2.8&#xA;&#x9;&#x9;&#x9;&#x9;c-60.1,13.8-106.4,52.5-126.5,70.5c6.2-21.4,11.1-43.5,15.2-65c4.1-15.9,8.3-31.1,11.7-47c1.4,0,2.1-0.7,2.8-1.4&#xA;&#x9;&#x9;&#x9;&#x9;c0.7-1.4,94.7-142.4,202.5-144.4c2.1,0,4.1-2.1,4.1-4.1s-2.1-4.1-4.1-4.1c-58.7,1.4-112.7,41.5-147.2,75.3&#xA;&#x9;&#x9;&#x9;&#x9;c-23.5,22.8-42.2,46.3-52.5,60.1c15.9-66.3,31.8-138.9,46.3-210.8l4.8-9c0.7-1.4,64.3-107.8,145.1-129.2c2.1-0.7,3.5-2.8,2.8-5.5&#xA;&#x9;&#x9;&#x9;&#x9;c-0.7-2.1-2.8-3.5-4.8-2.8c-69.1,18.7-123.7,93.3-143.1,122.3c13.1-64.8,25.5-129.8,37.3-194.9c10.4-14.5,68.4-62.9,85-62.9h0.7&#xA;&#x9;&#x9;&#x9;&#x9;c2.1,0,4.1-1.4,4.8-4.1c0-2.1-1.4-4.1-4.1-4.8h-0.7c-16.6,0-60.8,33.9-82.9,56c15.2-84.3,29.7-168.6,42.8-253.6&#xA;&#x9;&#x9;&#x9;&#x9;C859,46.3,1007.6,299.3,947.5,571.6L947.5,571.6z M595,1007c2.8-1.4,5.5-3.5,8.3-5.5c-0.7,2.1-2.1,4.1-2.8,6.2&#xA;&#x9;&#x9;&#x9;&#x9;C598.5,1007.7,596.4,1007.7,595,1007L595,1007z M655.1,449.2c35.9,102.3,43.5,210.8,23.5,324.8c-27,103-53.9,185.2-78.1,217.7&#xA;&#x9;&#x9;&#x9;&#x9;c-4.8,6.9-10.4,9.7-16.6,8.3c-13.1-2.8-32.5-23.5-60.1-83.6h0.7c-8.3-20.7,49.1-181.8,125.1-212.9c2.1-0.7,3.5-3.5,2.1-5.5&#xA;&#x9;&#x9;&#x9;&#x9;c-0.7-2.1-3.5-3.5-5.5-2.1c-69.8,29-121.6,151.4-129.9,203.9c-21.4-49.8-47.7-122.3-79.5-226.7c9-34.6,51.8-138.9,170-176.9&#xA;&#x9;&#x9;&#x9;&#x9;c2.1-0.7,3.5-3.5,2.8-5.5c-0.7-2.1-3.5-3.5-5.5-2.8c-107.1,34.6-156.2,123-172.1,170c-15.2-50.5-29.7-101.6-43.5-152.7&#xA;&#x9;&#x9;&#x9;&#x9;c-2.8-9-4.8-18-7.6-27c72.6-123,136.2-178.3,136.8-179c2.1-1.4,2.1-4.1,0.7-6.2c-1.4-2.1-4.1-2.1-6.2-0.7&#xA;&#x9;&#x9;&#x9;&#x9;c-0.7,0.7-62.2,54.6-134.1,174.2c-16.6-60.8-32.5-121.6-47.7-183.1c7.6-18.7,35.9-74,76.7-98.1c2.1-1.4,2.8-4.1,1.4-6.2&#xA;&#x9;&#x9;&#x9;&#x9;c-1.4-2.1-4.1-2.8-6.2-1.4c-35.2,20.7-63.6,65.7-76,92.6c-20-80.9-39.4-161.7-57.4-242.6C322,55.3,564.6,194.2,655.1,449.2&#xA;&#x9;&#x9;&#x9;&#x9;L655.1,449.2z M260.5,29c4.8,22.1,27.6,122.3,59.4,250.9c-31.8-28.3-73.3-38-75.3-38c-2.1-0.7-4.8,1.4-4.8,3.5&#xA;&#x9;&#x9;&#x9;&#x9;c-0.7,2.1,0.7,4.1,3.5,4.8c0.7,0,47,10.4,78.1,42.2l3.5,3.5c13.8,54.6,27.6,109.2,42.2,163.1c-27-17.3-85.7-36.6-149.3-42.8&#xA;&#x9;&#x9;&#x9;&#x9;c-2.1,0-4.1,1.4-4.8,4.1c0,2.1,1.4,4.1,4.1,4.8c77.4,6.9,139.6,32.5,154.1,47.7c18,67,37.3,135.5,57.4,199.7c0,0.7,0,0.7-0.7,1.4&#xA;&#x9;&#x9;&#x9;&#x9;c-54.6-60.1-209.4-79.5-216.3-80.2c-2.1,0-4.8,1.4-4.8,3.5c0,2.1,1.4,4.8,3.5,4.8c1.4,0,172.1,21.4,217,85l9.7,13.8&#xA;&#x9;&#x9;&#x9;&#x9;c21.4,69.1,43.5,132,64.3,183.1c-67-77.4-165.2-81.6-166.6-81.6c-2.1,0-4.1,2.1-4.1,4.1c0,2.1,2.1,4.1,4.1,4.1&#xA;&#x9;&#x9;&#x9;&#x9;c1.4,0,120.3,4.8,182.5,108.5c19.4,41.5,38,71.2,53.9,82.9c-71.9-13.8-245.3-62.9-343.5-222.5c-49.1-80.2-73.3-176.2-73.3-287.5&#xA;&#x9;&#x9;&#x9;&#x9;V490C154.8,358,190,203.9,260.5,29L260.5,29z M219.7,785.1c9.7,15.2,20,30.4,31.1,44.2C44.2,661.4,41.4,377.4,45.6,294.4&#xA;&#x9;&#x9;&#x9;&#x9;c13.1,42.2,46.3,133.4,100.2,199C145.1,606.1,169.3,703.6,219.7,785.1L219.7,785.1z M352.4,975.9C82.9,869.4-54,571.6,35.9,300.6&#xA;&#x9;&#x9;&#x9;&#x9;c-3.5,96.8,5.5,398.1,241.9,559.8c106.4,109.9,246.7,143.8,301.3,153.4C503.1,1017.3,425.7,1004.9,352.4,975.9z M1058.8,670.4&#xA;&#x9;&#x9;&#x9;&#x9;C1005.5,805.2,902.6,910.9,769.2,969c-48.4,20.7-100.2,35.2-152.7,41.5c69.8-43.5,129.2-91.2,178.3-143.1&#xA;&#x9;&#x9;&#x9;&#x9;c309.6-226,264.7-577.1,261.9-597.1l0.7-1.4C1109.9,398.1,1110.6,540.5,1058.8,670.4z"></path>
&#x9;&#x9;</g>
&#x9;</g>
</g>
<g transform="rotate(0 0.7956999999999965 71.23809999999997)">
&#x9;<g transform="matrix(1 0 0 1 0 0)">
&#x9;&#x9;<path class="st1" d="M1309.4,479.3h8.6c11.5,0,21.3-4.1,29.5-12.3s12.5-18,12.9-29.5l0,0v-367c-0.4-11.5-4.7-21.3-12.9-29.5&#xA;&#x9;&#x9;&#x9;s-18-12.3-29.5-12.3l0,0h-8.6v-6.6h145.1v6.6h-8.6c-15.9,0-28,6.8-36.4,20.5l0,0c-4,6.6-6,13.7-6,21.2l0,0v394.8h94.7&#xA;&#x9;&#x9;&#x9;c32.7,0,57.6-7.3,74.9-21.9c17.2-14.6,31.6-36.2,43.1-64.9l0,0h6.6l-38.4,107.3h-274.9V479.3z"></path>
&#x9;&#x9;<path class="st1" d="M2178.5,479.3L2178.5,479.3h5.3v6.6H2048v-6.6h5.3c8.4,0,14.8-2.9,19.2-8.6c4.4-5.7,6.6-11.2,6.6-16.2&#xA;&#x9;&#x9;&#x9;c0-5.1-0.9-10-2.6-14.9l0,0l-36.4-88.1h-167.6l-36.4,86.1c-2.2,5.7-3.3,11.2-3.3,16.2c0,5.1,2.2,10.6,6.6,16.6s11,8.9,19.9,8.9&#xA;&#x9;&#x9;&#x9;l0,0h5.3v6.6H1738v-6.6h5.3c9.3,0,18.7-3.2,28.2-9.6c9.5-6.4,17.3-16,23.5-28.8l0,0c96.7-206.7,147.1-314.9,151-324.6l0,0&#xA;&#x9;&#x9;&#x9;c7.5-18.5,11.5-30.9,11.9-37.1l0,0h6l163.6,361.7C2140.3,466.5,2157.3,479.3,2178.5,479.3z M1957.9,150.1l-76.8,181.5h151&#xA;&#x9;&#x9;&#x9;L1957.9,150.1z"></path>
&#x9;&#x9;<path class="st1" d="M2693.9,88.4v6.6h-9.9c-11.9,0-21,4.6-27.2,13.9l0,0c-2.6,4-4.2,8.6-4.6,13.9l0,0v223.2&#xA;&#x9;&#x9;&#x9;c0,45.9-14.7,82.2-44.1,109c-29.4,26.7-69.7,40.1-120.9,40.1c-51.2,0-91.6-13.2-121.2-39.7c-29.6-26.5-44.4-62.7-44.4-108.6l0,0&#xA;&#x9;&#x9;&#x9;V123.6c0-7.9-3.1-14.7-9.3-20.2c-6.2-5.5-13.7-8.3-22.5-8.3l0,0h-9.9v-6.6h125.9v6.6h-9.9c-8.8,0-16.3,2.8-22.5,8.3&#xA;&#x9;&#x9;&#x9;c-6.2,5.5-9.3,12.3-9.3,20.2l0,0v215.3c0,42.8,10.9,76.6,32.8,101.3c21.9,24.7,52.8,37.1,92.7,37.1c40,0,72-11.7,96.1-35.1&#xA;&#x9;&#x9;&#x9;s36.1-55.4,36.1-96l0,0V123.6c-0.4-8.4-3.6-15.2-9.6-20.5c-6-5.3-13.4-7.9-22.2-7.9l0,0h-9.9v-6.6H2693.9z"></path>
&#x9;&#x9;<path class="st1" d="M2976.7,109L2976.7,109h-35.1v334.5c0.4,13.7,6.6,24.1,18.5,31.1l0,0c5.7,3.1,12.1,4.6,19.2,4.6l0,0h8.6&#xA;&#x9;&#x9;&#x9;l0.7,6.6h-135.8v-6.6h9.3c10.2,0,18.9-3.4,26.2-10.3c7.3-6.8,10.9-15.1,10.9-24.8l0,0V129.5c0-9.7-3.6-17.9-10.9-24.5&#xA;&#x9;&#x9;&#x9;c-7.3-6.6-16-9.9-26.2-9.9l0,0h-9.3v-6.6h166.3c41.5,0,74.3,9.5,98.4,28.5c24.1,19,36.1,43.9,36.1,74.9c0,30.9-9.7,56.7-29.1,77.5&#xA;&#x9;&#x9;&#x9;c-19.4,20.8-44.2,32.7-74.2,35.8l0,0c14.1,6.2,31.1,23.4,51,51.7l0,0c-0.4,0,7.2,9.7,22.9,29.1c15.7,19.4,28.3,34.6,37.8,45.4&#xA;&#x9;&#x9;&#x9;c9.5,10.8,17.3,19.1,23.5,24.8l0,0c16.3,15.5,35.1,23.2,56.3,23.2l0,0v6.6h-20.5c-34.9,0-62.3-6.8-82.1-20.5l0,0&#xA;&#x9;&#x9;&#x9;c-15-10.2-28.7-22.7-41.1-37.8l0,0c-2.6-3.5-13.8-19.1-33.5-46.7c-19.7-27.6-30.1-42.3-31.5-44.1l0,0&#xA;&#x9;&#x9;&#x9;c-23.8-29.6-46.1-44.4-66.9-44.4l0,0v-6.6c51.7,0,82.8-2.6,93.4-7.9l0,0c14.6-7.5,24.5-15.5,29.8-23.8l0,0&#xA;&#x9;&#x9;&#x9;c11-17.7,16.6-37.1,16.6-58.3l0,0c0-26.9-7.9-47.7-23.8-62.3s-37.3-22.5-64.3-23.8l0,0C3005.9,109.2,2992.2,109,2976.7,109z"></path>
&#x9;&#x9;<path class="st1" d="M3367.5,479.3h9.3c10.6,0,19.5-3.4,26.8-10.3s11.2-15.1,11.6-24.8l0,0V129.5c0-9.7-3.8-17.9-11.3-24.5&#xA;&#x9;&#x9;&#x9;c-7.5-6.6-16.6-9.9-27.2-9.9l0,0h-9.3v-6.6H3561c18.1,0,34-1.3,47.7-4c13.7-2.6,22.5-4.9,26.5-6.6l0,0v75.5l-7.3-0.7v-9.9&#xA;&#x9;&#x9;&#x9;c0-9.3-3.1-17.2-9.3-23.8s-14.1-9.9-23.8-9.9l0,0H3457v168.3h113.3c8.8,0,15.6-2.6,20.2-7.9s7-11.9,7-19.9l0,0v-8.6h7.3v92.7h-7.3&#xA;&#x9;&#x9;&#x9;v-8.6c0-12.4-4.6-20.8-13.9-25.2l0,0c-3.5-1.3-7.3-2.2-11.3-2.6l0,0H3457v168.3h104c20.3,0,37.4-3.5,51.3-10.6&#xA;&#x9;&#x9;&#x9;c13.9-7.1,24.5-15.5,31.8-25.2c7.3-9.7,14.7-22.5,22.2-38.4l0,0h6.6l-36.4,94.7h-268.9V479.3z"></path>
&#x9;&#x9;<path class="st1" d="M3822,479.3h9.3c10.6,0,19.5-3.4,26.8-10.3s11.2-15.1,11.6-24.8l0,0V130.8c-0.4-9.7-4.5-18.1-12.3-25.2&#xA;&#x9;&#x9;&#x9;c-7.7-7.1-16.9-10.6-27.5-10.6l0,0h-7.9v-6.6h137.1v6.6h-7.9c-10.6,0-19.8,3.5-27.5,10.6c-7.7,7.1-11.6,15.5-11.6,25.2l0,0v334.5&#xA;&#x9;&#x9;&#x9;h103.3c20.3,0,37.5-3.5,51.7-10.6c14.1-7.1,24.8-15.5,32.1-25.2c7.3-9.7,14.5-22.5,21.5-38.4l0,0h6.6l-36.4,94.7H3822V479.3z"></path>
&#x9;&#x9;<path class="st1" d="M6224.6,1665.6"></path>
&#x9;&#x9;<path class="st1" d="M4544.7,479.3h8.6c11.5,0,21.3-4.1,29.5-12.3s12.5-18,12.9-29.5l0,0v-367c-0.4-11.5-4.7-21.3-12.9-29.5&#xA;&#x9;&#x9;&#x9;s-18-12.3-29.5-12.3l0,0h-8.6v-6.6h145.1v6.6h-8.6c-15.9,0-28,6.8-36.4,20.5l0,0c-4,6.6-6,13.7-6,21.2l0,0v394.8h94.7&#xA;&#x9;&#x9;&#x9;c32.7,0,57.6-7.3,74.9-21.9s31.6-36.2,43.1-64.9l0,0h6.6l-38.4,107.3h-274.9V479.3z"></path>
&#x9;&#x9;<path class="st1" d="M5013,479.3h9.3c10.6,0,19.5-3.4,26.8-10.3c7.3-6.8,11.2-15.1,11.6-24.8l0,0V129.5c0-9.7-3.8-17.9-11.3-24.5&#xA;&#x9;&#x9;&#x9;c-7.5-6.6-16.6-9.9-27.2-9.9l0,0h-9.3v-6.6h193.4c18.1,0,34-1.3,47.7-4c13.7-2.6,22.5-4.9,26.5-6.6l0,0v75.5l-7.3-0.7v-9.9&#xA;&#x9;&#x9;&#x9;c0-9.3-3.1-17.2-9.3-23.8c-6.2-6.6-14.1-9.9-23.8-9.9l0,0h-137.8v168.3h113.3c8.8,0,15.6-2.6,20.2-7.9s7-11.9,7-19.9l0,0v-8.6h7.3&#xA;&#x9;&#x9;&#x9;v92.7h-7.3v-8.6c0-12.4-4.6-20.8-13.9-25.2l0,0c-3.5-1.3-7.3-2.2-11.3-2.6l0,0h-115.3v168.3h104c20.3,0,37.4-3.5,51.3-10.6&#xA;&#x9;&#x9;&#x9;c13.9-7.1,24.5-15.5,31.8-25.2c7.3-9.7,14.7-22.5,22.2-38.4l0,0h6.6l-36.4,94.7H5013V479.3z"></path>
&#x9;&#x9;<path class="st1" d="M5874.8,479.3L5874.8,479.3h5.3v6.6h-135.8v-6.6h5.3c8.4,0,14.8-2.9,19.2-8.6c4.4-5.7,6.6-11.2,6.6-16.2&#xA;&#x9;&#x9;&#x9;c0-5.1-0.9-10-2.6-14.9l0,0l-36.4-88.1h-167.6l-36.4,86.1c-2.2,5.7-3.3,11.2-3.3,16.2c0,5.1,2.2,10.6,6.6,16.6s11,8.9,19.9,8.9&#xA;&#x9;&#x9;&#x9;l0,0h5.3v6.6h-126.5v-6.6h5.3c9.3,0,18.7-3.2,28.2-9.6c9.5-6.4,17.3-16,23.5-28.8l0,0c96.7-206.7,147.1-314.9,151-324.6l0,0&#xA;&#x9;&#x9;&#x9;c7.5-18.5,11.5-30.9,11.9-37.1l0,0h6l163.6,361.7C5836.6,466.5,5853.6,479.3,5874.8,479.3z M5654.2,150.1l-76.8,181.5h151&#xA;&#x9;&#x9;&#x9;L5654.2,150.1z"></path>
&#x9;&#x9;<path class="st1" d="M6275.6,152.7v-9.9c0-15-6.4-25.4-19.2-31.1l0,0c-4.4-1.8-9.1-2.6-13.9-2.6l0,0h-139.8v168.3H6218&#xA;&#x9;&#x9;&#x9;c8.8,0,15.5-2.6,19.9-7.9c4.4-5.3,6.6-11.9,6.6-19.9l0,0v-8.6h7.9v92.7h-7.9v-8.6c0-10.6-3.5-18.3-10.6-23.2l0,0&#xA;&#x9;&#x9;&#x9;c-4-2.6-8.8-4.2-14.6-4.6l0,0h-116.6v146.4c0.4,11.9,5.7,21.6,15.9,29.1l0,0c6.6,4.4,14.4,6.6,23.2,6.6l0,0h9.3v6.6h-138.4v-6.6&#xA;&#x9;&#x9;&#x9;h9.3c10.6,0,19.7-3.4,27.2-10.3c7.5-6.8,11.5-15.1,11.9-24.8l0,0V129.5c-0.4-13.7-6.8-23.6-19.2-29.8l0,0&#xA;&#x9;&#x9;&#x9;c-6.2-3.1-12.8-4.6-19.9-4.6l0,0h-9.3v-6.6h90.1H6208c12.8,0,26.9-1.1,42.4-3.3c15.5-2.2,26.3-4.6,32.5-7.3l0,0v75.5L6275.6,152.7&#xA;&#x9;&#x9;&#x9;z"></path>
&#x9;</g>
</g>
<g transform="rotate(0 40.188500000000005 113.54160000000002)">
&#x9;<g transform="matrix(1 0 0 1 0 0)">
&#x9;&#x9;<path class="st1" d="M2096.3,734.6c41,0,74.3,12.4,99.8,37.1c25.5,24.7,38.3,57.2,38.3,97.5s-12.8,72.7-38.3,97.5&#xA;&#x9;&#x9;&#x9;c-25.5,24.7-58.8,37.1-99.8,37.1l0,0h-130.3v-3.8h5c6.7,0,12.4-2.4,17.1-7.1c4.7-4.7,7.2-10.4,7.5-17.1l0,0V760.3&#xA;&#x9;&#x9;&#x9;c0-6.2-2.5-11.3-7.5-15.6c-5-4.2-10.7-6.3-17.1-6.3l0,0h-4.6l-0.4-3.8H2096.3z M2096.3,746.1h-75.7v246.1h75.7&#xA;&#x9;&#x9;&#x9;c21.5,0,40.6-5.1,57.1-15.4c16.5-10.3,29.3-24.7,38.4-43.3c9.1-18.6,13.6-40.1,13.6-64.4l0,0c0-36.9-10.1-66.6-30.2-89.2&#xA;&#x9;&#x9;&#x9;C2155.2,757.4,2128.8,746.1,2096.3,746.1L2096.3,746.1z"></path>
&#x9;&#x9;<path class="st1" d="M2326.2,999.9h5c6.7,0,12.4-2.4,17.1-7.1c4.7-4.7,7.2-10.4,7.5-17.1l0,0V760.3c-0.8-6.2-3.5-11.3-8.1-15.6&#xA;&#x9;&#x9;&#x9;c-4.6-4.2-10.1-6.3-16.5-6.3l0,0h-4.6l-0.4-3.8h112.7c7.9,0,16.6-0.8,26-2.3c9.4-1.5,16-3.1,19.8-4.6l0,0v48.4h-3.8v-6.9&#xA;&#x9;&#x9;&#x9;c0-6.2-2.1-11.4-6.3-15.8c-4.2-4.4-9.3-6.7-15.2-6.9l0,0h-78.4v118.8h65c5.1-0.3,9.5-2.2,13.1-5.8c3.6-3.6,5.4-8.1,5.4-13.5l0,0&#xA;&#x9;&#x9;&#x9;v-5.4h3.8v60.7h-3.8v-5.8c0-5.1-1.7-9.5-5.2-13.1c-3.5-3.6-7.8-5.5-12.9-5.8l0,0h-65.4v115h55c19,0,33.5-4.2,43.4-12.7&#xA;&#x9;&#x9;&#x9;c10-8.5,18.3-21,25-37.7l0,0h3.8l-22.3,62.3h-159.6V999.9z"></path>
&#x9;&#x9;<path class="st1" d="M2606.1,987.9L2606.1,987.9c-0.8-3.6-1.2-10.5-1.2-20.8c0-10.3,1.9-21.1,5.8-32.7l0,0h3.5&#xA;&#x9;&#x9;&#x9;c-0.3,2.8-0.4,5.6-0.4,8.5l0,0c0,15.6,4.7,28.6,14.2,39c9.5,10.4,22,15.6,37.7,15.6l0,0c16.1,0,29.4-4.9,39.8-14.6&#xA;&#x9;&#x9;&#x9;c10.4-9.7,15.6-22,15.6-36.7s-5-26.7-15-36l0,0l-73.8-68.4c-13.8-12.8-20.8-28.3-20.8-46.5s6.1-33.8,18.3-46.7&#xA;&#x9;&#x9;&#x9;c12.2-12.9,28.6-19.4,49.4-19.4l0,0c9.7,0,20.8,1.3,33.1,3.8l0,0h15v47.3h-3.5c0-12-4.2-21.7-12.5-28.8&#xA;&#x9;&#x9;&#x9;c-8.3-7.2-19-10.8-32.1-10.8s-24,4.4-32.9,13.1c-8.8,8.7-13.3,19.6-13.3,32.7c0,13.1,5.1,24.4,15.4,33.8l0,0l75.7,70&#xA;&#x9;&#x9;&#x9;c12.8,11.8,19.2,27.9,19.2,48.4s-6.5,37.4-19.6,50.6s-30.5,19.8-52.3,19.8l0,0c-11.3,0-23.3-1.7-36-5.2S2613,995.1,2606.1,987.9z"></path>
&#x9;&#x9;<path class="st1" d="M2846,999.9h5c6.7,0,12.4-2.4,17.1-7.1c4.7-4.7,7.2-10.4,7.5-17.1l0,0V762.3c-0.3-6.7-2.8-12.3-7.5-16.9&#xA;&#x9;&#x9;&#x9;c-4.7-4.6-10.4-6.9-17.1-6.9l0,0h-5v-3.8h84.2v3.8h-5c-6.7,0-12.4,2.3-17.1,6.9c-4.7,4.6-7.2,10.3-7.5,16.9l0,0v213.4&#xA;&#x9;&#x9;&#x9;c0,6.7,2.4,12.4,7.3,17.1c4.9,4.7,10.6,7.1,17.3,7.1l0,0h5v3.8H2846V999.9z"></path>
&#x9;&#x9;<path class="st1" d="M3164,1009.1c-41-0.3-74.3-13.2-99.8-38.8c-25.5-25.6-38.3-59.3-38.3-101.1s12.8-75.6,38.3-101.3&#xA;&#x9;&#x9;&#x9;c25.5-25.8,58.8-38.6,99.8-38.6l0,0c35.4,0,66.5,8.7,93.4,26.1l0,0l7.7,54.2h-3.5c-5.6-22-17-39-34-50.9&#xA;&#x9;&#x9;&#x9;c-17-11.9-38.3-17.9-63.6-17.9l0,0c-32.6,0-58.9,11.8-79,35.4s-30.2,54.6-30.2,93s10.1,69.4,30.2,92.9&#xA;&#x9;&#x9;&#x9;c20.1,23.5,46.5,35.3,79,35.6l0,0c16.7,0,32.5-2.9,47.5-8.8c15-5.9,28.1-14.1,39.4-24.6l0,0v-68.1c0-5.6-1.7-9.9-5.2-12.9&#xA;&#x9;&#x9;&#x9;c-3.5-2.9-8.3-4.4-14.4-4.4l0,0h-6.2v-3.8h75.4v3.8h-5.8c-6.4,0-11.3,1.5-14.6,4.4c-3.3,2.9-4.9,7.2-4.6,12.9l0,0v63.4&#xA;&#x9;&#x9;&#x9;c-6.7,8.7-14.6,16.5-23.8,23.5c-9.2,6.9-21.6,13-37.1,18.3C3199.1,1006.5,3182.2,1009.1,3164,1009.1L3164,1009.1z"></path>
&#x9;&#x9;<path class="st1" d="M3663.9,738.4h-6.9c-6.4,0-11.9,2.2-16.5,6.7c-4.6,4.5-7,9.9-7.3,16.3l0,0v198.4c0,14.9,0.9,29,2.7,42.3l0,0&#xA;&#x9;&#x9;&#x9;l0.8,6.9h-3.5l-209.5-223.8v191.5c0.3,9,4.2,15.6,11.9,20l0,0c3.6,2.1,7.4,3.1,11.5,3.1l0,0h7.3v3.8h-79.2v-3.8h7.3&#xA;&#x9;&#x9;&#x9;c6.4,0,11.9-2.2,16.5-6.7c4.6-4.5,6.9-10.1,6.9-16.7l0,0V776.9c0-15.6-0.9-29.6-2.7-41.9l0,0l-0.8-6.2h3.8l209.5,223.8V761.9&#xA;&#x9;&#x9;&#x9;c-0.3-6.7-2.7-12.2-7.3-16.7c-4.6-4.5-10.1-6.7-16.5-6.7l0,0h-7.3v-3.8h79.2V738.4z"></path>
&#x9;&#x9;<path class="st1" d="M4440.3,2095.1"></path>
&#x9;&#x9;<path class="st1" d="M3916.1,987.9L3916.1,987.9c-0.8-3.6-1.2-10.5-1.2-20.8c0-10.3,1.9-21.1,5.8-32.7l0,0h3.5&#xA;&#x9;&#x9;&#x9;c-0.3,2.8-0.4,5.6-0.4,8.5l0,0c0,15.6,4.7,28.6,14.2,39c9.5,10.4,22,15.6,37.7,15.6l0,0c16.1,0,29.4-4.9,39.8-14.6&#xA;&#x9;&#x9;&#x9;c10.4-9.7,15.6-22,15.6-36.7s-5-26.7-15-36l0,0l-73.8-68.4c-13.8-12.8-20.8-28.3-20.8-46.5s6.1-33.8,18.3-46.7&#xA;&#x9;&#x9;&#x9;c12.2-12.9,28.6-19.4,49.4-19.4l0,0c9.7,0,20.8,1.3,33.1,3.8l0,0h15v47.3h-3.5c0-12-4.2-21.7-12.5-28.8&#xA;&#x9;&#x9;&#x9;c-8.3-7.2-19-10.8-32.1-10.8s-24,4.4-32.9,13.1c-8.8,8.7-13.3,19.6-13.3,32.7c0,13.1,5.1,24.4,15.4,33.8l0,0l75.7,70&#xA;&#x9;&#x9;&#x9;c12.8,11.8,19.2,27.9,19.2,48.4s-6.5,37.4-19.6,50.6c-13.1,13.2-30.5,19.8-52.3,19.8l0,0c-11.3,0-23.3-1.7-36-5.2&#xA;&#x9;&#x9;&#x9;S3923,995.1,3916.1,987.9z"></path>
&#x9;&#x9;<path class="st1" d="M4359.4,775.3v-6.5c0-6.2-2.2-11.5-6.5-16c-4.4-4.5-9.5-6.9-15.4-7.1l0,0h-73.1V976&#xA;&#x9;&#x9;&#x9;c0.3,6.7,2.8,12.3,7.5,16.9c4.7,4.6,10.4,6.9,17.1,6.9l0,0h5v3.8h-84.2v-3.8h5c6.7,0,12.4-2.3,17.1-6.9c4.7-4.6,7.2-10.1,7.5-16.5&#xA;&#x9;&#x9;&#x9;l0,0V745.7h-73.1c-6.2,0.3-11.3,2.6-15.6,7.1c-4.2,4.5-6.3,9.8-6.3,16l0,0v6.5l-3.8,0.4v-48.4c3.8,1.5,10.5,3.1,20,4.6&#xA;&#x9;&#x9;&#x9;c9.5,1.5,18.2,2.3,26.1,2.3l0,0h130c12.6,0,23-1,31.3-2.9c8.3-1.9,13.4-3.3,15.2-4l0,0v48.4L4359.4,775.3z"></path>
&#x9;&#x9;<path class="st1" d="M4710.8,734.6v3.8h-6.2c-5.4,0-10.1,1.7-14,5.2c-4,3.5-6.1,7.8-6.3,12.9l0,0v152.3c0,30-9.5,54.2-28.5,72.7&#xA;&#x9;&#x9;&#x9;c-19,18.5-44.2,27.7-75.7,27.7s-57.1-9.2-76.7-27.5c-19.6-18.3-29.4-42.5-29.4-72.5l0,0V757.6c0-7.7-3.3-13.3-10-16.9l0,0&#xA;&#x9;&#x9;&#x9;c-3.1-1.5-6.5-2.3-10.4-2.3l0,0h-6.2v-3.8h78.1v3.8h-6.2c-5.6,0-10.4,1.7-14.2,5.2c-3.8,3.5-5.9,7.9-6.2,13.3l0,0v146.9&#xA;&#x9;&#x9;&#x9;c0,27.9,7.5,50.5,22.5,67.7s35.1,25.8,60.2,25.8c25.1,0,45.5-8.1,61.1-24.4s23.5-37.6,23.5-64l0,0V756.9&#xA;&#x9;&#x9;&#x9;c-0.3-5.4-2.3-9.8-6.2-13.3c-3.8-3.5-8.6-5.2-14.2-5.2l0,0h-6.2v-3.8H4710.8z"></path>
&#x9;&#x9;<path class="st1" d="M4936.2,734.6c41,0,74.3,12.4,99.8,37.1c25.5,24.7,38.3,57.2,38.3,97.5s-12.8,72.7-38.3,97.5&#xA;&#x9;&#x9;&#x9;c-25.5,24.7-58.8,37.1-99.8,37.1l0,0h-130.3v-3.8h5c6.7,0,12.4-2.4,17.1-7.1c4.7-4.7,7.2-10.4,7.5-17.1l0,0V760.3&#xA;&#x9;&#x9;&#x9;c0-6.2-2.5-11.3-7.5-15.6c-5-4.2-10.7-6.3-17.1-6.3l0,0h-4.6l-0.4-3.8H4936.2z M4936.2,746.1h-75.7v246.1h75.7&#xA;&#x9;&#x9;&#x9;c21.5,0,40.6-5.1,57.1-15.4c16.5-10.3,29.3-24.7,38.4-43.3c9.1-18.6,13.6-40.1,13.6-64.4l0,0c0-36.9-10.1-66.6-30.2-89.2&#xA;&#x9;&#x9;&#x9;C4995,757.4,4968.7,746.1,4936.2,746.1L4936.2,746.1z"></path>
&#x9;&#x9;<path class="st1" d="M5166.1,999.9h5c6.7,0,12.4-2.4,17.1-7.1c4.7-4.7,7.2-10.4,7.5-17.1l0,0V762.3c-0.3-6.7-2.8-12.3-7.5-16.9&#xA;&#x9;&#x9;&#x9;c-4.7-4.6-10.4-6.9-17.1-6.9l0,0h-5v-3.8h84.2v3.8h-5c-6.7,0-12.4,2.3-17.1,6.9c-4.7,4.6-7.2,10.3-7.5,16.9l0,0v213.4&#xA;&#x9;&#x9;&#x9;c0,6.7,2.4,12.4,7.3,17.1c4.9,4.7,10.6,7.1,17.3,7.1l0,0h5v3.8h-84.2V999.9z"></path>
&#x9;&#x9;<path class="st1" d="M5388.1,767.8c25.5-25.8,58.8-38.6,99.8-38.6s74.3,12.9,100,38.6s38.4,59.5,38.4,101.3&#xA;&#x9;&#x9;&#x9;c0,41.8-12.8,75.6-38.4,101.3c-25.6,25.8-59,38.6-100,38.6s-74.3-12.9-99.8-38.6c-25.5-25.8-38.3-59.5-38.3-101.3&#xA;&#x9;&#x9;&#x9;C5349.9,827.4,5362.6,793.6,5388.1,767.8z M5409.3,962.2c19.9,23.6,46.1,35.4,78.8,35.4c32.7,0,59-11.8,78.8-35.4&#xA;&#x9;&#x9;&#x9;c19.9-23.6,29.8-54.6,29.8-93l0,0c0-25.4-4.5-47.8-13.5-67.3c-9-19.5-21.7-34.5-38.3-45.2c-16.5-10.6-35.6-16-57.1-16l0,0&#xA;&#x9;&#x9;&#x9;c-32.6,0-58.8,11.8-78.6,35.4c-19.9,23.6-29.8,54.6-29.8,93S5389.4,938.6,5409.3,962.2z"></path>
&#x9;</g>
</g>
</svg>