<svg xmlns="http://www.w3.org/2000/svg" viewBox="0 0 1130 1023">
  <style>
    path { fill: #2a2e25; }
    @media (prefers-color-scheme: dark) {
      path { fill: #f4f0e8; }
    }
  </style>
  <path d="M1060.8,253.6l-4.8-11.1l-3.5,11.7c0,1.4-32.5,118.9-82.9,206.6C977.9,212.9,843.1,6.2,841.7,3.5L839,0 l-3.5,2.8c-1.4,1.4-3.5,2.1-4.8,3.5c-91.2,65-168.6,131.3-230.8,197c-4.8,5.5-10.4,11.1-15.2,16.6c-1.4,2.1-1.4,4.8,0.7,6.2 c2.1,1.4,4.1,1.4,6.2,0c4.8-5.5,9.7-11.1,15.2-15.9c60.1-63.6,134.1-127.2,221.2-189.4c-4.8,30.4-20,125.1-42.2,244.7 c-15.2-47.7-59.4-107.1-61.5-109.9c-1.4-2.1-4.1-2.1-6.2-0.7c-2.1,1.4-2.1,4.1-0.7,6.2c0.7,0.7,57.4,76.7,65,124.4v1.4 c-10.4,56.7-21.4,114-32.5,170.7C725.6,354.5,642.7,255.7,642,255c-1.4-2.1-4.1-2.1-6.2-0.7c-2.1,1.4-2.1,4.1-0.7,6.2 c0.7,1.4,93.3,112,109.9,219.1c-15.2,76-31.8,153.4-48.4,224.6c6.9-88.5-4.1-174.2-33.2-255.7C561.1,159,265.3,18,262.6,16.6 l-4.1-2.1l-1.4,4.1c-71.9,172.8-109.2,326.9-112,460.3c-65.7-85-98.1-208.7-98.1-210.1l-3.5-12.4l-4.8,12.4 c-112,282.7,27.6,603.4,311,715.3c65.7,26.3,134.8,38.7,203.2,38.7c74.6,0,149.3-15.2,219.8-45.6 c135.5-58.7,239.8-166.6,294.4-303.4C1121,537.7,1118.9,388.4,1060.8,253.6L1060.8,253.6z M969.6,478.3 c38-61.5,66.3-141.7,80.9-187.3c6.2,75.3,9.7,344.9-223.9,540.5c65-78.1,108.5-164.5,129.2-258.5c6.9-31.8,11.1-62.9,13.1-94 C969.6,479,969.6,478.3,969.6,478.3L969.6,478.3z M947.5,571.6c-38,171.4-151.4,316.5-335.9,432c22.8-48.4,41.5-96.1,55.3-143.1 c0,0,0.7,0,0.7-0.7c0.7-0.7,56-60.1,132-78.1c2.1-0.7,3.5-2.8,2.8-5.5c-0.7-2.1-2.8-3.5-4.8-2.8 c-60.1,13.8-106.4,52.5-126.5,70.5c6.2-21.4,11.1-43.5,15.2-65c4.1-15.9,8.3-31.1,11.7-47c1.4,0,2.1-0.7,2.8-1.4 c0.7-1.4,94.7-142.4,202.5-144.4c2.1,0,4.1-2.1,4.1-4.1s-2.1-4.1-4.1-4.1c-58.7,1.4-112.7,41.5-147.2,75.3 c-23.5,22.8-42.2,46.3-52.5,60.1c15.9-66.3,31.8-138.9,46.3-210.8l4.8-9c0.7-1.4,64.3-107.8,145.1-129.2c2.1-0.7,3.5-2.8,2.8-5.5 c-0.7-2.1-2.8-3.5-4.8-2.8c-69.1,18.7-123.7,93.3-143.1,122.3c13.1-64.8,25.5-129.8,37.3-194.9c10.4-14.5,68.4-62.9,85-62.9h0.7 c2.1,0,4.1-1.4,4.8-4.1c0-2.1-1.4-4.1-4.1-4.8h-0.7c-16.6,0-60.8,33.9-82.9,56c15.2-84.3,29.7-168.6,42.8-253.6 C859,46.3,1007.6,299.3,947.5,571.6L947.5,571.6z M595,1007c2.8-1.4,5.5-3.5,8.3-5.5c-0.7,2.1-2.1,4.1-2.8,6.2 C598.5,1007.7,596.4,1007.7,595,1007L595,1007z M655.1,449.2c35.9,102.3,43.5,210.8,23.5,324.8c-27,103-53.9,185.2-78.1,217.7 c-4.8,6.9-10.4,9.7-16.6,8.3c-13.1-2.8-32.5-23.5-60.1-83.6h0.7c-8.3-20.7,49.1-181.8,125.1-212.9c2.1-0.7,3.5-3.5,2.1-5.5 c-0.7-2.1-3.5-3.5-5.5-2.1c-69.8,29-121.6,151.4-129.9,203.9c-21.4-49.8-47.7-122.3-79.5-226.7c9-34.6,51.8-138.9,170-176.9 c2.1-0.7,3.5-3.5,2.8-5.5c-0.7-2.1-3.5-3.5-5.5-2.8c-107.1,34.6-156.2,123-172.1,170c-15.2-50.5-29.7-101.6-43.5-152.7 c-2.8-9-4.8-18-7.6-27c72.6-123,136.2-178.3,136.8-179c2.1-1.4,2.1-4.1,0.7-6.2c-1.4-2.1-4.1-2.1-6.2-0.7 c-0.7,0.7-62.2,54.6-134.1,174.2c-16.6-60.8-32.5-121.6-47.7-183.1c7.6-18.7,35.9-74,76.7-98.1c2.1-1.4,2.8-4.1,1.4-6.2 c-1.4-2.1-4.1-2.8-6.2-1.4c-35.2,20.7-63.6,65.7-76,92.6c-20-80.9-39.4-161.7-57.4-242.6C322,55.3,564.6,194.2,655.1,449.2 L655.1,449.2z M260.5,29c4.8,22.1,27.6,122.3,59.4,250.9c-31.8-28.3-73.3-38-75.3-38c-2.1-0.7-4.8,1.4-4.8,3.5 c-0.7,2.1,0.7,4.1,3.5,4.8c0.7,0,47,10.4,78.1,42.2l3.5,3.5c13.8,54.6,27.6,109.2,42.2,163.1c-27-17.3-85.7-36.6-149.3-42.8 c-2.1,0-4.1,1.4-4.8,4.1c0,2.1,1.4,4.1,4.1,4.8c77.4,6.9,139.6,32.5,154.1,47.7c18,67,37.3,135.5,57.4,199.7c0,0.7,0,0.7-0.7,1.4 c-54.6-60.1-209.4-79.5-216.3-80.2c-2.1,0-4.8,1.4-4.8,3.5c0,2.1,1.4,4.8,3.5,4.8c1.4,0,172.1,21.4,217,85l9.7,13.8 c21.4,69.1,43.5,132,64.3,183.1c-67-77.4-165.2-81.6-166.6-81.6c-2.1,0-4.1,2.1-4.1,4.1c0,2.1,2.1,4.1,4.1,4.1 c1.4,0,120.3,4.8,182.5,108.5c19.4,41.5,38,71.2,53.9,82.9c-71.9-13.8-245.3-62.9-343.5-222.5c-49.1-80.2-73.3-176.2-73.3-287.5 V490C154.8,358,190,203.9,260.5,29L260.5,29z M219.7,785.1c9.7,15.2,20,30.4,31.1,44.2C44.2,661.4,41.4,377.4,45.6,294.4 c13.1,42.2,46.3,133.4,100.2,199C145.1,606.1,169.3,703.6,219.7,785.1L219.7,785.1z M352.4,975.9C82.9,869.4-54,571.6,35.9,300.6 c-3.5,96.8,5.5,398.1,241.9,559.8c106.4,109.9,246.7,143.8,301.3,153.4C503.1,1017.3,425.7,1004.9,352.4,975.9z M1058.8,670.4 C1005.5,805.2,902.6,910.9,769.2,969c-48.4,20.7-100.2,35.2-152.7,41.5c69.8-43.5,129.2-91.2,178.3-143.1 c309.6-226,264.7-577.1,261.9-597.1l0.7-1.4C1109.9,398.1,1110.6,540.5,1058.8,670.4z" />
</svg>
